<svg width="500" height="263" viewBox="0 0 500 263" fill="none" xmlns="http://www.w3.org/2000/svg">
<path d="M353.283 174.972V114.144L317.935 103.053L335.899 113.14V33.3378L275.813 20.0439L231.909 34.9223V90.5323L184.676 79.8277L150.606 91.8076V166.392L350.611 174.972H353.283Z" fill="#E7F6FF"/>
<path d="M261.275 102.614L263.056 99.9859C263.056 99.9859 264.682 97.9763 265.456 96.9716C266.192 95.9668 257.519 92.2955 257.519 92.2955L252.68 94.8847L251.092 99.2516L261.275 102.614Z" fill="#E87366"/>
<path d="M276.258 104.585C272.309 105.512 265.65 98.7107 259.571 97.7832C253.454 96.8944 245.711 98.4402 245.711 98.4402C245.711 98.4402 245.517 105.705 253.841 108.72C262.126 111.734 268.747 108.527 274.864 111.579C283.343 115.792 276.258 104.585 276.258 104.585Z" fill="#8D0F26"/>
<path d="M266.463 75.1761C266.463 75.1761 273.47 78.7315 272.038 85.3784C270.76 90.7887 266.772 97.397 264.914 99.5997C264.914 99.5997 258.294 99.5997 256.396 97.1265C255.274 95.8898 255.467 92.9528 255.196 91.2911C256.629 88.1995 258.719 87.1561 260.578 84.2963C262.436 81.4752 258.255 73.8622 261.158 72.1232L266.463 75.1761Z" fill="white"/>
<path d="M353.371 220.118L130.639 183.946C115.308 181.55 111.32 171.735 152.088 154.151C152.088 154.151 318.14 163.696 335.213 164.778C352.287 165.822 382.95 188.738 353.371 220.118Z" fill="#E7F6FF"/>
<path d="M206.453 115.637C206.724 115.792 217.913 95.0781 217.913 95.0781C217.913 95.0781 222.869 98.1311 233.554 110.382C244.201 122.632 244.743 123.444 239.594 137.278C226.585 172.523 225.269 191.227 225.269 191.227L210.015 194.396" fill="#3CB4E5"/>
<path d="M154.264 216.694C192.748 228.21 232.819 237.485 248.886 241.079C285.511 249.31 303.63 235.785 276.877 231.534C255.855 228.21 191.819 217.931 160.769 213.177C151.128 211.709 142.843 213.255 154.264 216.694Z" fill="#0C0B31"/>
<path d="M233.438 197.797C236.807 197.99 237.465 199.691 237.581 200.193C238.007 202.357 236.148 205.14 228.792 207.265C221.049 209.506 208.467 209.313 208.467 209.313C206.724 209.313 205.524 209.12 205.021 207.729C204.75 206.956 204.169 201.893 204.324 199.652C204.363 197.565 204.672 195.208 205.408 194.667C206.144 194.126 208.931 196.985 210.596 197.063C212.222 197.14 211.177 194.551 212.532 192.619C214.506 189.759 218.997 189.488 220.236 191.266C224.379 196.985 232.587 197.758 233.438 197.797Z" fill="#0C0B31"/>
<path d="M224.379 206.222L209.241 207.458C207.963 207.574 207.034 208.656 207.15 209.932V210.125C207.266 211.4 208.351 212.328 209.628 212.212L224.766 210.975C226.044 210.859 226.973 209.777 226.857 208.502V208.308C226.741 207.072 225.656 206.144 224.379 206.222Z" fill="#0C0B31"/>
<path d="M201.072 131.791L203.046 145.781L206.57 143.385L207.421 128.854L201.072 131.791Z" fill="#0C0B31"/>
<path d="M219.462 189.488L214.042 135.347L206.841 136.39L211.215 186.551L219.462 189.488Z" fill="#0C0B31"/>
<path d="M271.341 110.132C271.341 110.132 270.373 110.325 270.373 110.905C270.373 110.944 270.373 110.982 270.373 111.021C270.296 111.755 270.915 112.374 271.651 112.296C272.193 112.219 272.967 112.142 273.548 112.103C274.013 112.064 274.477 112.142 274.942 112.258L277.458 112.992C278.658 113.147 279.704 112.915 280.827 112.567L284.04 111.06L283.266 111.021L274.09 110.016C273.161 109.939 272.232 109.9 271.341 110.132Z" fill="#8D0F26"/>
<path d="M193.948 148.409C180.088 146.554 166.925 162.166 164.563 183.305C162.201 204.444 171.532 223.071 185.431 224.926C199.33 226.781 212.454 211.168 214.816 190.029C217.139 168.891 207.808 150.264 193.948 148.409ZM185.702 216.965C175.52 215.612 168.744 200.889 170.603 184.078C172.461 167.267 182.256 154.785 192.477 156.138C202.659 157.49 209.435 172.214 207.537 189.025C205.679 205.835 195.923 218.356 185.702 216.965Z" fill="#0C0B31"/>
<path d="M169.906 165.567C174.823 178.474 181.133 189.14 181.133 189.14L215.59 197.951C216.249 193.739 216.481 189.256 216.249 184.658C215.01 160.93 202.698 146.476 187.173 147.636C180.436 148.138 174.436 152.196 169.906 158.572C169.79 158.765 169.635 158.92 169.519 159.113C169.48 159.191 169.402 159.306 169.364 159.384C168.551 160.698 168.589 162.128 169.906 165.567Z" fill="#0C0B31"/>
<path d="M181.753 186.551C181.946 186.512 182.14 186.474 182.333 186.474L210.286 182.493C211.758 182.3 213.306 182.493 214.584 183.266C216.403 184.31 218.339 186.512 218.804 191.304C219.385 197.14 216.713 202.705 212.687 203.671L212.454 203.709C210.519 204.019 208.544 204.019 206.608 203.671L182.798 199.149C180.707 198.802 179.236 197.14 178.578 194.164C177.842 190.532 179.236 187.131 181.753 186.551Z" fill="#0C0B31"/>
<path d="M243.853 124.874L225.85 175.074C224.263 179.479 219.965 182.262 215.281 181.914L206.841 181.296L209.977 198.995L228.057 200.734L253.261 132.68" fill="#0C0B31"/>
<path d="M197.704 123.637L193.058 126.729C191.238 127.502 190.348 131.057 191.122 132.873C191.858 134.651 202.504 137.434 204.324 136.738C204.324 136.738 209.551 133.84 210.635 131.791L207.46 128.816L208.97 123.676L201.614 127.115L197.704 123.637Z" fill="#0C0B31"/>
<path d="M237.852 122.284L231.657 126.767C230.419 127.656 229.722 129.125 229.799 130.632L230.109 137.279C230.264 140.332 232.625 142.844 235.684 143.191L273.161 147.442C275.135 147.674 277.148 147.326 278.929 146.476L283.266 144.389C285.395 143.346 286.982 141.491 287.718 139.25L290.931 129.163C291.318 127.888 290.467 126.535 289.15 126.381L242.498 121.086C240.833 120.855 239.168 121.318 237.852 122.284Z" fill="#0C0B31"/>
<path d="M234.484 172.523C234.484 172.523 232.741 169.509 234.484 165.49C236.226 161.471 244.434 143.965 265.301 143.926C273.548 143.926 271.728 153.123 271.728 153.123C271.728 153.123 272.038 150.109 259.417 152.389C246.795 154.747 234.484 172.523 234.484 172.523Z" fill="#0C0B31"/>
<path d="M258.991 200.733C262.882 200.733 266.037 196.65 266.037 191.613C266.037 186.576 262.882 182.493 258.991 182.493C255.099 182.493 251.944 186.576 251.944 191.613C251.944 196.65 255.099 200.733 258.991 200.733Z" fill="#0C0B31"/>
<path d="M202.543 192.734L191.238 190.956C190.193 190.802 189.225 191.266 188.992 192.734C188.76 194.203 195.613 197.062 199.755 198.26C201.188 198.685 202.659 198.917 204.169 198.917L209.976 198.995C211.254 198.995 212.338 198.106 212.532 196.83L212.725 195.555C212.725 195.594 203.588 192.889 202.543 192.734Z" fill="#0C0B31"/>
<path d="M183.611 148.099C176.487 147.287 171.996 148.022 171.377 151.5C170.602 155.866 171.377 160.504 171.377 160.504L185.779 156.794L183.611 148.099Z" fill="#0C0B31"/>
<path d="M268.708 146.012C249.466 143.732 231.851 162.32 229.373 187.517C226.895 212.713 240.484 234.973 259.726 237.214C278.968 239.494 296.583 220.906 299.061 195.71C301.539 170.552 287.95 148.292 268.708 146.012ZM259.881 227.785C245.75 226.123 235.877 208.54 237.852 188.522C239.826 168.504 252.873 153.625 267.043 155.287C281.175 156.949 291.047 174.532 289.073 194.55C287.098 214.568 274.012 229.447 259.881 227.785Z" fill="#0C0B31"/>
<path d="M255.235 162.553C253.88 144.776 258.681 144.351 258.681 144.351L256.552 123.289C252.68 123.251 251.79 128.777 251.79 128.777C251.79 128.777 246.524 137.742 245.982 149.104C245.363 161.973 248.654 179.634 250.512 189.952C252.603 201.391 259.455 200.695 259.455 200.695C257.945 192.696 255.777 169.393 255.235 162.553Z" fill="#0C0B31"/>
<path d="M246.64 131.945L243.853 121.82C243.388 120.197 243.969 118.497 245.285 117.454L250.938 113.009C252.099 112.082 253.609 111.734 255.08 112.005L263.056 113.473C264.333 113.705 265.301 114.864 265.262 116.178L265.146 130.168L246.64 131.945Z" fill="#0C0B31"/>
<path d="M246.176 64.4332C246.176 64.4332 246.331 62.2304 244.975 61.2257C243.62 60.2595 240.059 56.4337 239.362 55.0425C238.665 53.6899 238.045 55.6222 238.084 56.3951C234.212 54.0764 225.463 54.8106 222.985 60.8006C228.986 62.5783 238.045 65.7858 238.858 71.312C239.633 76.8382 246.176 64.4332 246.176 64.4332Z" fill="#3CB4E5"/>
<path d="M201.188 131.908L203.162 145.898L206.686 143.502L207.537 128.971L201.188 131.908Z" fill="#0C0B31"/>
<path d="M215.939 107.021C215.939 107.021 196.465 106.094 188.257 120.238C186.05 103.156 196.077 85.6503 206.957 77.9213C217.836 70.1924 229.644 72.8975 229.644 72.8975L241.646 87.3507L215.939 107.021Z" fill="white"/>
<path d="M218.339 61.6905C229.373 59.4877 235.064 59.1785 239.594 61.6132C244.124 64.0478 246.06 67.9896 246.06 67.9896C246.06 67.9896 256.397 77.0712 265.108 79.1966C260.191 95.1956 258.875 105.823 245.905 101.031C232.354 103.118 228.057 111.079 228.057 111.079L207.654 108.876L218.339 61.6905Z" fill="white"/>
<path d="M263.094 46.9278C247.802 48.1644 249.892 59.8352 249.892 59.8352C249.854 63.0427 250.473 66.173 251.48 69.2259C250.976 71.3514 250.589 73.5542 250.938 75.7183C251.286 77.8824 252.486 80.0079 254.461 80.974C255.622 81.5537 257.016 81.6696 258.294 81.3218C259.533 80.974 260.655 80.1625 261.352 77.1481L275.677 56.8982C275.871 52.1062 270.373 46.6186 263.714 46.9278C263.52 46.8891 263.288 46.8891 263.094 46.9278Z" fill="#B75757"/>
<path d="M252.874 60.7241C246.021 69.4192 243.233 51.2947 229.373 60.0285C235.722 59.1397 244.046 61.7289 243.349 73.4769C242.653 85.225 252.061 79.7374 253.145 70.6559" fill="#3CB4E5"/>
<path d="M255.274 73.7854C256.59 76.6451 264.643 78.8865 266.462 79.1957C270.024 79.814 271.108 78.6546 272.812 76.5678C274.515 74.481 275.909 70.6165 276.335 67.834C276.374 67.5635 276.412 67.2544 276.412 66.9839C276.49 64.4719 275.716 63.815 275.522 62.617C275.483 62.2692 275.483 61.9214 275.522 61.6122C275.754 59.564 276.529 60.1437 274.902 56.086C273.315 52.0283 266.114 46.5407 259.649 47.7387C249.505 48.7048 250.434 55.8928 250.241 60.2596C250.047 64.5879 253.299 69.2639 255.274 73.7854Z" fill="#B75757"/>
<path d="M271.573 66.8706C275.096 68.3778 276.296 67.8368 276.296 67.8368C276.335 67.5662 276.374 67.2571 276.374 66.9866C276.451 64.4747 275.677 63.8177 275.483 62.6197C275.135 62.1559 274.631 61.8854 274.089 61.7695C273.122 61.5376 272.425 62.6197 272.425 62.6197C272.425 62.6197 271.689 63.5085 271.573 66.8706Z" fill="#8D0F26"/>
<path d="M268.051 62.1938C267.47 61.846 266.85 61.6141 266.153 61.5368C265.379 61.4209 264.566 61.5368 263.831 61.8846C264.024 61.4209 264.373 60.9958 264.798 60.7253C265.224 60.4548 265.766 60.3002 266.27 60.3002C266.734 60.3388 267.16 60.5707 267.509 60.9185C267.857 61.2663 268.051 61.73 268.051 62.1938Z" fill="#0C0B31"/>
<path d="M275.6 63.0442C275.097 62.7351 274.555 62.5419 273.974 62.4646C273.47 62.4259 272.928 62.4646 272.464 62.5805C272.464 62.5805 273.006 61.2279 274.206 61.2666C275.406 61.3052 275.6 63.0442 275.6 63.0442Z" fill="#0C0B31"/>
<path d="M271.496 59.719C271.38 60.917 273.238 63.7767 273.626 64.5496C273.974 65.3612 273.935 66.4432 272.232 67.3321C271.574 67.6799 270.141 66.8683 270.025 65.1679C270.064 63.5835 270.296 61.999 270.722 60.4919L271.496 59.719Z" fill="#B75757"/>
<path d="M272.502 68.9941C271.031 68.6849 269.599 68.2985 268.205 67.8347L266.037 67.1391C264.72 66.714 264.643 67.1391 264.759 67.6029C264.759 67.6415 264.759 67.6801 264.759 67.7188C265.495 70.1534 267.469 72.0857 269.637 72.3175C269.676 72.3175 269.676 72.3175 269.715 72.3175C270.218 72.3562 270.683 72.2016 271.07 71.9311C271.767 71.3901 272.309 70.6558 272.657 69.8443C272.967 69.2646 272.618 69.0714 272.502 68.9941Z" fill="white"/>
<path d="M256.009 55.0821C256.668 55.0821 257.21 54.5411 257.21 53.8841C257.21 53.2272 256.668 52.6862 256.009 52.6862C255.351 52.6862 254.809 53.2272 254.809 53.8841C254.809 54.5411 255.351 55.0821 256.009 55.0821Z" fill="#0C0B31"/>
<path d="M197.858 123.754L193.213 126.846C191.393 127.618 190.502 131.174 191.277 132.99C192.012 134.768 202.659 137.55 204.479 136.855C204.479 136.855 209.705 133.956 210.789 131.908L207.615 128.932L209.125 123.793L201.769 127.232L197.858 123.754Z" fill="#0C0B31"/>
<path d="M196.426 113.204C196.426 113.204 212.803 94.7703 220.197 95.1181C227.592 95.4659 236.497 98.7508 236.342 103.968C236.226 109.146 203.821 127.155 203.821 127.155L196.426 113.204Z" fill="#FFA296"/>
<path d="M190.464 96.3547C190.464 96.3547 197.239 94.4225 220.159 95.1181C214.7 97.8232 211.177 101.533 208.97 105.475C203.124 115.909 206.221 128.044 206.221 128.044C206.221 128.044 192.128 129.358 186.515 124.411C181.365 119.89 180.359 110.847 183.34 103.002C185.585 97.0503 189.263 94.5771 194.761 91.2922C194.761 91.2922 197.239 96.3934 215.28 98.0551" fill="#3CB4E5"/>
<path d="M205.795 166.843C205.408 166.843 204.672 166.38 204.285 166.38L198.091 175.925L192.206 166.38C194.374 162.863 195.303 162.09 197.51 154.554C200.336 143.618 199.291 129.86 207.576 121.126C206.531 114.054 212.648 101.108 221.785 97.1665C230.922 93.2247 238.781 99.9876 236.884 107.523C233.941 119.465 220.159 131.329 205.795 166.843Z" fill="#B75757"/>
<path d="M197.858 153.201C200.801 156.68 205.485 157.027 210.131 156.834C222.869 128.932 234.909 118.266 237.542 107.562C239.091 101.301 233.361 95.6205 226.392 96.0456C224.34 95.5432 222.211 95.1954 220.197 95.1181C212.841 94.7703 196.426 113.204 196.426 113.204L203.666 126.884C199.794 134.807 199.794 144.738 197.858 153.201Z" fill="#3CB4E5"/>
<path d="M229.218 91.215C224.069 90.4421 224.998 79.0805 218.107 75.0615C211.215 71.081 201.188 69.2261 201.188 69.2261C201.188 69.2261 197.471 74.7136 205.989 82.3267C214.506 89.9011 219.578 92.413 225.463 98.944C233.593 108.103 229.218 91.215 229.218 91.215Z" fill="#B75757"/>
<path d="M244.821 103.156C243.853 102.461 242.691 101.997 241.53 101.649L231.154 98.3644L230.225 98.0166L233.399 101.417C236.071 104.161 239.439 103.968 239.439 103.968C240.059 104.045 240.639 104.2 241.22 104.47C241.917 104.818 242.769 105.282 243.427 105.63C244.279 106.093 245.324 105.63 245.556 104.702C245.556 104.625 245.595 104.586 245.595 104.548C245.866 103.852 244.821 103.156 244.821 103.156Z" fill="#E87366"/>
<path d="M253.415 68.4534C253.415 68.4534 251.635 66.7144 250.938 64.6275C250.473 63.275 250.086 61.8451 250.086 61.8451L248.228 63.2363C248.228 63.2363 248.731 66.1347 250.705 68.9171C252.68 71.6996 254.422 72.7816 254.422 72.7816" fill="#0C0B31"/>
<path d="M248.228 63.2748C250.822 62.1541 253.454 60.9947 255.584 59.1011C257.713 57.2462 259.262 54.5024 259.029 51.6813C259.029 51.6813 262.204 49.4785 269.754 49.865C278.891 50.3287 280.362 53.6908 280.362 53.6908C280.362 51.9905 278.852 49.7491 276.374 48.7443C276.374 48.7443 273.006 41.2858 260.23 43.5659C249.66 46.271 245.75 54.8115 247.724 61.729L248.228 63.2748Z" fill="#0C0B31"/>
<path d="M250.589 61.9224C251.131 62.3475 249.892 63.1977 250.628 63.3523C251.751 63.6228 253.106 62.8113 254.538 62.1543C258.023 60.6085 260.81 54.9277 260.617 53.2273C263.791 52.3385 267.121 52.2225 270.334 52.8795C271.689 53.15 273.083 53.6138 274.206 54.3867C275.174 55.0436 275.561 56.1643 275.638 57.3237C275.677 57.942 275.677 58.9467 275.677 58.9467C285.433 53.1887 278.813 48.1262 265.805 49.6333C260.81 50.1357 258.991 51.6429 258.991 51.6429C259.107 53.4978 258.565 55.3914 257.016 57.5169C255.932 59.0241 253.803 60.5312 251.364 61.8065C251.054 62.1156 251.015 61.9997 250.589 61.9224Z" fill="#0C0B31"/>
<path d="M250.55 60.3764C251.015 60.2218 251.518 60.1832 251.983 60.2991C253.067 60.5696 254.306 61.613 254.577 63.4294L254.19 68.3373C254.19 68.3373 253.725 69.7285 252.409 69.3807C251.092 69.0715 249.466 66.0959 248.847 64.009C248.382 62.4246 249.234 60.8401 250.55 60.3764Z" fill="#B75757"/>
<path d="M267.198 79.2739C267.198 79.2739 263.288 79.7763 259.804 78.501C259.61 78.4237 259.378 78.3464 259.184 78.2691C256.126 76.9552 253.996 74.2114 253.222 70.9652C252.912 69.7286 252.796 68.4533 252.873 67.1394L253.144 60.8403C254.035 60.3379 254.848 59.7582 255.622 59.0626C255.738 58.9467 255.855 58.8307 255.971 58.7534C255.816 60.7243 255.506 65.0525 255.545 67.835C255.584 71.4676 255.506 72.0859 258.41 75.3321C261.275 78.5783 267.198 79.2739 267.198 79.2739Z" fill="#0C0B31"/>
<path d="M254.306 56.4347C254.732 56.5893 255.274 56.1642 255.467 55.5459C255.661 54.9276 255.506 54.2706 255.08 54.1547C254.654 54.0001 254.112 54.4252 253.919 55.0435C253.687 55.6618 253.88 56.2802 254.306 56.4347Z" fill="#0C0B31"/>
<path d="M251.054 70.6546C250.048 70.5386 249.312 69.6498 249.428 68.645C249.544 67.6403 250.435 66.906 251.441 67.0219C252.448 67.1379 253.184 68.0267 253.067 69.0315C252.951 70.0362 252.022 70.7705 251.054 70.6546Z" fill="#0C0B31"/>
<path d="M265.573 53.1124C265.573 53.1124 275.639 55.2379 275.484 61.5757C282.53 52.1463 273.161 51.3734 270.838 51.528C268.554 51.6826 265.573 53.1124 265.573 53.1124Z" fill="#3CB4E5"/>
<path d="M265.572 53.111C265.572 53.111 263.133 61.1105 255.777 61.4583C259.145 58.6372 260.617 53.3042 260.617 53.3042C260.617 53.3042 264.333 49.9421 271.573 51.5266C271.07 52.1449 265.572 53.111 265.572 53.111Z" fill="#3CB4E5"/>
<path d="M200.414 72.6645C200.956 68.0658 202.156 66.5586 205.95 64.9355C209.744 63.3511 213.035 62.269 218.3 61.6507C222.869 61.1097 225.308 64.124 225.424 69.9207C225.501 75.4083 224.805 76.529 224.805 76.529C222.675 76.529 212.338 76.4518 212.338 76.4518L200.414 72.6645Z" fill="#B75757"/>
<path d="M203.124 183.576L192.128 180.445C191.083 180.136 190.115 180.484 189.689 181.952C189.263 183.421 195.768 187.054 199.678 188.754C201.033 189.334 202.504 189.759 203.975 189.952L209.744 190.725C211.022 190.879 212.183 190.107 212.532 188.909L212.88 187.672C212.919 187.672 204.169 183.885 203.124 183.576Z" fill="#0C0B31"/>
<path d="M254.809 124.101C256.629 121.357 261.236 114.478 263.017 111.812C263.249 111.464 263.83 110.614 264.024 110.266C265.882 107.252 269.328 105.319 272.928 105.513C273.703 105.551 274.787 105.783 275.6 105.899C277.226 106.17 286.014 107.522 287.795 107.793C290.66 108.334 290.079 112.507 287.176 112.237C285.317 112.005 276.645 110.846 274.98 110.652L273.78 110.498C271.767 110.073 269.637 111 268.553 112.778C266.269 116.449 261.933 123.405 259.61 127.154C257.442 130.323 252.796 127.347 254.809 124.101Z" fill="#0C0B31"/>
<path d="M273.974 105.204C273.974 105.204 276.103 103.078 277.342 103.04C278.581 103.04 279.045 103.774 279.045 103.774C279.045 103.774 279.897 103.155 280.594 103.349C281.213 103.542 281.213 104.122 281.213 104.122C281.213 104.122 281.755 103.465 282.297 103.735C282.839 104.006 282.878 104.392 282.878 104.392C282.878 104.392 284.388 103.735 284.891 104.856C285.395 105.938 286.363 109.996 285.24 110.382C284.117 110.769 284.04 109.571 284.04 109.571C284.04 109.571 283.807 110.343 283.072 110.421C282.336 110.498 282.026 109.802 282.026 109.802C282.026 109.802 281.755 110.266 281.097 110.189C280.439 110.112 280.284 109.339 280.284 109.339C280.284 109.339 280.091 109.918 279.2 109.802C278.31 109.686 276.606 105.629 276.606 105.629L273.974 105.204Z" fill="#8D0F26"/>
<path d="M239.981 103.04C239.013 102.344 237.852 101.88 236.69 101.533L225.037 98.2477L224.108 97.8999L227.282 101.301C228.483 102.305 229.644 103.04 231.154 103.465L234.561 103.851C235.18 103.929 235.761 104.083 236.342 104.354C237.039 104.701 237.89 105.165 238.549 105.513C239.4 105.977 240.446 105.513 240.678 104.585C240.678 104.508 240.717 104.47 240.717 104.431C241.065 103.774 239.981 103.04 239.981 103.04Z" fill="#B75757"/>
<path d="M244.782 121.86C243.93 118.42 241.762 109.725 240.91 106.363L240.601 105.088C240.33 103.696 239.246 102.769 237.968 102.267C237.271 101.957 236.535 101.648 235.8 101.455C230.883 99.9479 225.463 98.2862 220.546 96.8563C217.294 95.8129 218.61 91.0596 221.94 91.8325C221.94 91.8325 232.277 94.6536 232.277 94.6149C235.722 95.6583 240.484 96.3926 243.311 98.7499C244.782 99.9865 245.866 101.687 246.369 103.542L246.718 104.817L248.189 109.918L251.131 120.159C252.177 124.487 246.021 126.149 244.782 121.86Z" fill="#0C0B31"/>
<path d="M225.114 91.4461C225.114 91.4461 228.715 88.9728 230.534 89.282C232.315 89.5912 234.135 90.1322 235.064 90.6346C235.916 91.0983 236.729 91.0983 237.426 91.6393C238.123 92.1804 238.084 92.7214 238.084 92.7214C238.084 92.7214 240.407 92.1804 240.833 93.8808C241.259 95.5811 241.53 101.648 239.826 101.842C238.084 102.073 238.355 100.373 238.355 100.373C238.355 100.373 237.813 101.417 236.729 101.339C235.645 101.262 235.413 100.18 235.413 100.18C235.413 100.18 234.871 100.76 233.98 100.489C233.051 100.219 233.051 99.0592 233.051 99.0592C233.051 99.0592 232.625 99.8321 231.386 99.4456C230.573 99.1751 229.721 96.9723 229.257 95.4652C228.947 94.5764 228.289 93.8421 227.36 93.4943L225.153 92.6828L225.114 91.4461Z" fill="#B75757"/>
<path d="M213.5 181.218C216.442 182.841 216.752 184.735 216.636 185.237C216.094 187.402 213.19 189.063 205.64 187.749C197.704 186.397 186.902 177.122 187.057 175.692C187.134 174.881 188.838 170.05 189.96 168.118C190.89 166.263 192.245 164.253 193.135 164.099C194.026 163.944 195.303 167.731 196.736 168.504C198.168 169.277 198.362 166.495 200.452 165.335C203.472 163.635 207.615 165.335 208.002 167.461C209.163 174.455 212.764 180.832 213.5 181.218Z" fill="white"/>
</svg>
