<svg xmlns="http://www.w3.org/2000/svg" role="img" viewBox="19.77 19.52 272.22 56.47"><style>svg {enable-background:new 0 0 312 97}</style><style>.st0{fill:#ff00bf}.st1,.st4{fill-rule:evenodd;clip-rule:evenodd;fill:#0c0b31}.st4{fill:#3cb4e5}</style><path d="M229 52.1V25.8h-10v24.6c0 6.8 4.5 9.9 8.7 9.9 1.2 0 2.5-.3 3.6-.8l.4-.2-.4-.4c-1.5-1.8-2.3-4.1-2.3-6.8zm58-6.6v-9.9h-3.6c-1.5-7.7-9.7-12.8-18-9.8-4.6 1.7-8.3 7.2-8.3 12v22.4h.4c2.6-.1 5-1.2 6.7-3 1.8-1.8 2.8-4.3 2.8-6.8h4.1v-9.9H267v-2.7c0-1.1.6-2 1.5-2.5 2.5-1.4 5.1.4 5.1 2.8v9c0 3.6 1.4 6.9 3.8 9.3 2.4 2.3 5.6 3.7 9 3.8h.4v-9.8c-1.9 0-3.3-1.5-3.3-3.3v-1.6h3.5z" class="st0"/><path d="M244.7 35.7v13.1c0 .9-.7 1.6-1.7 1.6s-1.7-.7-1.7-1.6V35.7h-10v16.4c0 4.5 3.7 8.2 8.3 8.2 2 0 3.9-.7 5.4-2-.2 1.2-.8 2.2-2 2.9-1.1.7-2.4 1-4 1s-3.2-.4-4.7-1.1c0 0-.3-.1-.6-.3v8.8c2.2.9 4.6 1.4 7 1.4 3.7 0 7.1-1.2 9.6-3.2 2.7-2.3 4.2-5.8 4.2-9.9V35.7h-9.8z" class="st0"/><path d="M198.5 49c0 2.8-2.2 5-5 5s-5-2.2-5-5 2.2-5 5-5 5 2.2 5 5zM45.8 34.3H26.3c-.7 0-1.3.6-1.3 1.3v24.6c0 .7.6 1.3 1.3 1.3h19.5c6.4 0 11.7-5.2 11.7-11.6V46c0-6.6-5.3-11.7-11.7-11.7zm0 21.6H30.6V39.7h15.2c3.4 0 6.1 2.7 6.1 6.1v3.9c0 3.4-2.7 6.2-6.1 6.2zm43-16.2c.7 0 1.3-.6 1.3-1.3v-2.8c0-.7-.6-1.3-1.3-1.3H64.3c-.7 0-1.3.6-1.3 1.3v2.8c0 .7.6 1.3 1.3 1.3h9.4v16.1h-9.4c-.7 0-1.3.6-1.3 1.3V60c0 .7.6 1.3 1.3 1.3h24.5c.7 0 1.3-.6 1.3-1.3v-2.8c0-.7-.6-1.3-1.3-1.3h-9.4V39.7h9.4z" class="st1"/><defs><filter id="Adobe_OpacityMaskFilter" width="36.8" height="41" x="95.8" y="26" filterUnits="userSpaceOnUse"><feColorMatrix values="1 0 0 0 0 0 1 0 0 0 0 0 1 0 0 0 0 0 1 0"/></filter></defs><mask id="mask0_31_303_00000122715373783069527090000003752286602347849636_" width="36.8" height="41" x="95.8" y="26" maskUnits="userSpaceOnUse"><path fill="#fff" fill-rule="evenodd" d="M95.8 26h36.8v41H95.8V26z" clip-rule="evenodd" filter="url(#Adobe_OpacityMaskFilter)"/></mask><g mask="url(#mask0_31_303_00000122715373783069527090000003752286602347849636_)"><path d="M131.6 26c-.3 0-.6.1-1 .5l-16.3 16.3-16.4-16.3c-.4-.4-.8-.5-1-.5-.6 0-1.1.5-1.1 1.2V32c0 .5.2.8.5 1.1.2.2 15 14.9 15.2 15.1.3.3.8.5 1.2.5h3c.4 0 .9-.2 1.2-.5.2-.2 15-14.9 15.2-15.1.3-.3.5-.6.5-1.1v-4.8c0-.7-.4-1.2-1-1.2z" class="st4"/><path d="M131.6 44.4c-.3 0-.6.1-1 .5l-16.3 16.3-16.4-16.4c-.4-.4-.8-.5-1-.5-.6 0-1.1.5-1.1 1.2v4.8c0 .5.2.8.5 1.1.2.2 15 14.9 15.2 15.1.3.3.8.5 1.2.5h3c.4 0 .9-.2 1.2-.5.2-.2 15-14.9 15.2-15.1.3-.3.5-.6.5-1.1v-4.8c0-.7-.4-1.1-1-1.1z" class="st4"/></g><path d="M168.8 34.8c-.2-.3-.6-.5-1.1-.5h-3.6c-.5 0-.9.4-1.2.8l-10.4 12.4-10.3-12.4c-.4-.4-.7-.8-1.2-.8h-3.6c-.5 0-.9.2-1.1.5-.2.3-.3.8 0 1.2l13.5 16.5v7.6c0 .7.6 1.3 1.3 1.3h2.9c.7 0 1.3-.6 1.3-1.3v-7.6L168.8 36c.3-.4.2-.9 0-1.2zm-8.5 24c.2 0 .3-.1.3-.3 0-.2-.1-.3-.3-.3h-.4v.5h.4zm.4.6l.4.8c0 .1 0 .1-.1.1h-.4c-.1 0-.1 0-.1-.1l-.4-.8s0-.1-.1-.1h-.2v.8s0 .1-.1.1h-.5s-.1 0-.1-.1v-2.4s0-.1.1-.1h1c.5 0 .8.4.8.8 0 .3-.1.5-.4.7.1.2.1.3.1.3zm-2.3-.4c0 .9.8 1.7 1.7 1.7 1 0 1.7-.8 1.7-1.7 0-.9-.8-1.7-1.7-1.7-.9 0-1.7.8-1.7 1.7zm1.8-2.3c1.3 0 2.3 1 2.3 2.3 0 1.3-1.1 2.3-2.3 2.3-1.3 0-2.3-1-2.3-2.3-.1-1.3 1-2.3 2.3-2.3z" class="st1"/></svg>