<svg width="140" height="131" viewBox="0 0 140 131" fill="none" xmlns="http://www.w3.org/2000/svg">
<path d="M10.0082 48.6667C-3.95563 84.4845 0.0153507 112.69 11.3318 121.763C22.6483 130.836 48.6183 131 80.3678 129.613C117.971 127.97 139.84 119.809 139.187 91.7502C138.069 63.4904 127.591 11.206 94.0706 2.42503C60.55 -6.35597 23.972 12.849 10.0082 48.6667Z" fill="#E7F6FF"/>
<path d="M36.09 124.757H66.6276L42.5592 53.1759C40.5084 47.0785 34.7103 42.9709 28.1479 42.9709H9.80298V99.0342C9.80298 113.237 21.5669 124.757 36.09 124.757Z" fill="#3CB4E5"/>
<path d="M23.1889 53.1761C21.511 48.2106 17.3349 44.5412 12.3012 43.3728C11.2199 43.1172 10.1013 42.9894 8.94543 42.9712C4.43376 43.0442 0.79834 46.6223 0.79834 51.0585V89.432V95.6207C1.30171 108.217 4.91849 117.528 10.5301 122.037C11.7606 123.022 13.1402 123.917 14.6876 124.757H47.2387L23.1889 53.1761Z" fill="#0C0B31"/>
<path d="M39.6882 58.5432L62.3956 126.108L54.0435 127.02L31.019 58.5432H39.6882Z" fill="#0C0B31"/>
<path d="M45.2625 124.245C45.2625 124.921 65.2107 125.414 92.6163 125.688C95.7484 124.72 98.7127 123.588 101.491 122.347C69.6292 122.748 45.2625 123.515 45.2625 124.245Z" fill="#0C0B31"/>
<path d="M8.21826 119.754C8.01319 119.517 7.8081 119.262 7.60303 119.006C7.8081 119.262 8.01319 119.517 8.21826 119.754Z" fill="#E7F6FF"/>
<path d="M9.01995 120.631C8.79623 120.412 8.59115 120.174 8.36743 119.919C8.57251 120.174 8.79623 120.412 9.01995 120.631Z" fill="#E7F6FF"/>
<path d="M10.5301 122.036C10.3064 121.854 10.0641 121.653 9.84033 121.452C10.0827 121.635 10.3064 121.836 10.5301 122.036Z" fill="#E7F6FF"/>
<path d="M9.67253 121.288C9.44881 121.087 9.2251 120.868 9.02002 120.649C9.24374 120.868 9.44881 121.087 9.67253 121.288Z" fill="#E7F6FF"/>
<path d="M6.87603 118.002C6.48452 117.418 6.09299 116.815 5.73877 116.176C6.09299 116.815 6.48452 117.436 6.87603 118.002Z" fill="#E7F6FF"/>
<path d="M7.60303 119.006C7.39795 118.732 7.19287 118.458 6.98779 118.166C7.19287 118.458 7.39795 118.732 7.60303 119.006Z" fill="#E7F6FF"/>
<path d="M5.64556 116.012C5.45912 115.683 5.29132 115.355 5.12354 115.026C5.29132 115.373 5.47777 115.702 5.64556 116.012Z" fill="#E7F6FF"/>
<path d="M5.73872 116.176C5.70144 116.122 5.68279 116.067 5.64551 116.012C5.68279 116.067 5.70144 116.122 5.73872 116.176Z" fill="#0C0B31"/>
<path d="M10.53 122.036C10.7537 122.219 10.9961 122.401 11.2385 122.566C11.0148 122.383 10.7724 122.219 10.53 122.036Z" fill="#0C0B31"/>
<path d="M9.85898 121.434C9.80305 121.379 9.74709 121.324 9.69116 121.27C9.72845 121.343 9.78441 121.397 9.85898 121.434Z" fill="#0C0B31"/>
<path d="M8.36742 119.937C8.31149 119.882 8.27419 119.827 8.21826 119.773C8.27419 119.827 8.31149 119.882 8.36742 119.937Z" fill="#0C0B31"/>
<path d="M6.98781 118.166C6.95052 118.111 6.91326 118.057 6.87598 118.002C6.91326 118.057 6.95052 118.111 6.98781 118.166Z" fill="#0C0B31"/>
<path d="M65.9565 30.192H60.5686V33.7154H65.9565V30.192Z" fill="#3CB4E5"/>
<path d="M73.7865 30.192H70.6172V33.7154H73.7865V30.192Z" fill="#3CB4E5"/>
<path d="M56.1128 30.1919H41.4592V33.7152H56.1128V30.1919Z" fill="#3CB4E5"/>
<path d="M45.2065 27.125L43.1185 31.9445L45.2065 36.764L33.5359 31.9445L45.2065 27.125Z" fill="#3CB4E5"/>
<path d="M40.378 122.712L39.5577 121.763C32.958 122.055 28.8751 122.383 28.6514 122.712H40.378Z" fill="#0C0B31"/>
<path d="M91.1245 45.6545L94.5176 22.8167H85.4197C82.8469 22.8167 80.8521 25.0256 81.169 27.5266L82.2504 39.8492L78.0183 43.2813L91.0313 48.4842L91.516 47.6627L94.2566 51.7337L91.1245 45.6545Z" fill="#0C0B31"/>
<path d="M72.6493 96.1682L80.1438 73.7867L88.5146 48.8311L82.5302 46.7865L76.9745 63.2532L74.1034 71.8151L66.5715 94.2148L72.6493 96.1682Z" fill="#0C0B31"/>
<path d="M103.261 28.7132H91.5161V22.8167H103.261C104.921 22.8167 106.282 24.1311 106.282 25.7741C106.282 27.3988 104.939 28.7132 103.261 28.7132Z" fill="#0C0B31"/>
<path d="M69.5357 63.1434C86.6316 63.1434 100.502 76.7257 100.502 93.4662C100.502 110.207 86.6316 123.789 69.5357 123.789C52.4399 123.789 38.5693 110.207 38.5693 93.4662C38.5693 76.7257 52.3467 63.1434 69.5357 63.1434ZM45.3182 93.9408C45.3182 106.957 56.1499 117.564 69.4425 117.564C82.7352 117.564 93.5669 106.957 93.5669 93.9408C93.5669 80.9245 82.7352 70.3179 69.4425 70.3179C56.1499 70.2997 45.3182 80.9062 45.3182 93.9408Z" fill="#0C0B31"/>
<path d="M69.5356 98.9064C72.6863 98.9064 75.2405 96.4707 75.2405 93.4662C75.2405 90.4617 72.6863 88.026 69.5356 88.026C66.3849 88.026 63.8308 90.4617 63.8308 93.4662C63.8308 96.4707 66.3849 98.9064 69.5356 98.9064Z" fill="#0C0B31"/>
<path d="M100.316 90.5453C100.316 90.8009 101.583 92.809 102.068 94.2512C98.6937 93.6123 96.8108 90.8922 95.9345 87.6427C93.1381 77.2917 83.8164 69.4965 72.5373 68.6567C72.0525 66.3017 71.5492 63.8372 71.1204 61.8291C88.7382 62.1212 100.316 73.3485 100.316 90.5453Z" fill="#0C0B31"/>
<path d="M76.3593 69.9164C67.2241 67.2694 68.175 58.9448 68.175 58.9448C68.175 58.9448 70.5986 58.9265 72.3883 58.7074C74.1967 58.4884 78.2423 57.6851 80.5727 49.324C81.1507 47.2611 88.1791 49.1414 88.1791 49.1414L82.2319 64.531L70.3003 68.5473" fill="#0C0B31"/>
<path d="M89.801 53.669C86.613 61.3364 87.079 62.7421 93.1194 69.6245C100.278 77.7848 102.889 89.1216 102.05 94.2697C98.8057 88.6652 95.7668 86.8761 96.0278 86.2372C96.2888 85.5982 81.9149 67.0504 81.9149 67.0504C81.9149 67.0504 77.3286 68.2005 77.3286 67.0504C77.3286 65.9003 83.7978 48.6487 83.7978 48.6487" fill="#0C0B31"/>
<path d="M139.187 91.7503C138.963 86.1093 138.367 79.5372 137.304 72.527L131.767 88.0261C126.994 87.8436 122.557 85.4886 119.798 81.6366L95.5432 47.6262L85.3081 48.7216L112.397 86.6934C115.175 90.5819 119.034 93.5211 123.434 95.2189C122.912 96.3872 122.613 97.6834 122.613 99.0526C122.613 104.365 127.013 108.692 132.457 108.692C133.109 108.692 134.787 108.6 136.111 108.418C138.274 104.347 139.336 98.5962 139.187 91.7503Z" fill="#0C0B31"/>
<path d="M54.9756 38.7539L80.0322 38.8452C85.9234 38.8634 91.4232 41.7113 94.779 46.4761L98.7873 52.1719H65.9565C63.3651 52.1719 60.9788 50.8574 59.6365 48.685L54.2672 40.0318C53.8943 39.4841 54.3045 38.7539 54.9756 38.7539Z" fill="#3CB4E5"/>
<path d="M100.111 19.622C98.6566 20.0053 95.9347 20.1149 94.2941 20.8269C92.6535 21.5388 92.4484 23.4009 92.2061 24.0033C91.9637 24.6058 92.8027 27.5267 96.4381 29.4983C99.0109 30.904 103.075 28.2934 103.075 28.2934C103.075 28.2934 103.672 27.3989 104.063 23.9486C104.212 22.7072 109.843 22.2691 115.827 15.8978C113.217 12.9221 110.234 10.2568 106.841 8.04785C103.802 13.9079 100.801 19.4394 100.111 19.622Z" fill="#FFA296"/>
<path d="M103.206 28.7315C104.946 28.7315 106.356 27.3502 106.356 25.6462C106.356 23.9423 104.946 22.561 103.206 22.561C101.466 22.561 100.055 23.9423 100.055 25.6462C100.055 27.3502 101.466 28.7315 103.206 28.7315Z" fill="#0C0B31"/>
<path d="M33.5173 57.8859L55.8706 124.391L47.1828 124.501L24.7922 57.8859H33.5173Z" fill="#3CB4E5"/>
<path d="M39.539 121.763L40.3593 122.712H28.6327C28.8751 122.383 32.9579 122.055 39.539 121.763L31.7088 112.854H4.1355C5.7761 116.834 7.93868 119.955 10.5301 122.037C21.8466 131.11 48.6183 131.018 80.3677 129.613C99.9245 128.755 115.231 126.144 125.317 119.882C96.867 120.247 58.1823 120.923 39.539 121.763Z" fill="#0C0B31"/>
</svg>
