<svg width="158" height="131" viewBox="0 0 158 131" fill="none" xmlns="http://www.w3.org/2000/svg">
<path d="M137.711 115.986C116.83 132.11 67.1901 134.383 44.1941 124.021C22.9954 114.453 -2.64382 90.6638 0.422315 53.3415C3.48845 16.0192 33.0397 0.582831 56.2472 0.318508C79.4546 0.0541863 102.768 8.88255 106.997 26.3278C111.226 43.7731 112.178 48.5308 120.107 63.9673C128.037 79.4037 157.377 69.6238 157.377 69.6238C157.483 73.43 155.527 102.188 137.711 115.986Z" fill="#E7F6FF"/>
<path d="M56.9872 119.792C49.9563 119.792 43.0311 119.792 36.2644 119.792C38.9076 121.378 41.6037 122.753 44.1941 123.968C64.9698 133.325 107.42 132.427 130.839 120.268C119.896 120.109 106.68 120.004 90.9262 119.898C80.7762 119.792 69.5161 119.792 56.9872 119.792Z" fill="#0C0B31"/>
<path d="M149.87 70.3639C148.76 59.8439 144.108 50.434 137.182 43.1916C128.777 34.5218 117.041 29.0768 104.036 29.0768C99.5959 29.0768 95.3668 29.7112 91.2433 30.927C85.4811 32.6187 80.1418 35.3677 75.4897 38.9624C73.5866 40.4426 71.8421 42.0286 70.2561 43.7731C64.3353 50.1168 60.159 58.1522 58.5731 66.9806C58.0444 69.6767 57.833 72.3728 57.833 75.2274C57.833 76.179 57.833 77.1834 57.8859 78.135C58.2559 84.1087 59.789 89.818 62.2207 94.9459C66.82 104.673 74.6439 112.497 84.371 117.096C90.3446 119.898 97.0055 121.484 104.036 121.484C110.697 121.484 117.041 120.109 122.803 117.519C138.927 110.277 150.293 94.0472 150.293 75.2803C150.187 73.6415 150.029 71.9498 149.87 70.3639ZM72.1593 92.937C69.8332 88.4964 68.353 83.5271 67.983 78.2407C67.9301 77.5006 67.9301 76.7605 67.9301 76.0733C67.9301 73.0071 68.3002 69.9938 69.0403 67.1392C70.5733 61.0598 73.6923 55.6676 77.8686 51.2798C79.5603 49.5353 81.3577 48.0023 83.3665 46.6278C87.9657 43.403 93.3579 41.2356 99.1201 40.4426C100.653 40.2312 102.239 40.1255 103.931 40.1255C114.134 40.1255 123.438 44.4603 129.993 51.3856C135.967 57.7293 139.773 66.2405 139.931 75.5446C139.931 75.7561 139.931 75.9675 139.931 76.1261C139.931 96.0031 123.808 112.127 103.931 112.127C90.186 112.074 78.1858 104.25 72.1593 92.937Z" fill="#0C0B31"/>
<path d="M139.086 31.72C141.623 33.5702 142.046 37.3236 139.931 39.7025L106.785 77.2362H50.3792C50.3792 46.3106 75.4897 21.2 106.415 21.2C118.627 21.2 129.94 25.1119 139.086 31.72Z" fill="#3CB4E5"/>
<path d="M31.6123 75.8089C30.4493 77.8706 29.8149 80.1967 29.8149 82.6813C29.8149 90.5581 36.2115 96.9547 44.0883 96.9547C45.8857 96.9547 49.6391 96.4789 54.3969 95.5273C57.3044 94.9458 60.5292 94.2586 64.0182 93.5185C67.1372 92.8841 70.4677 92.144 73.7453 91.4568C87.1728 88.5492 100.706 85.4831 104.407 84.6373C111.596 82.9456 112.706 78.8222 112.706 76.179C112.706 74.593 112.231 73.2185 111.438 72.0027C110.803 70.9982 109.852 70.1524 108.794 69.518L84.5296 46.3634L76.9171 39.0153L71.2078 33.6231L65.8685 28.4953L75.014 2.11589C72.5823 1.58725 70.0448 1.16435 67.4544 0.847168L44.6698 66.1347C38.3261 65.4475 32.5639 62.0113 28.9691 56.7249L8.24624 27.2794C5.76162 31.5085 3.75278 36.2663 2.32544 41.6056L18.1319 64.2845C21.7267 69.3066 26.3259 73.1657 31.6123 75.8089ZM59.7362 46.2048L63.3838 35.6848L66.0799 38.2223L71.7893 43.6145L79.3489 50.804L95.5783 66.2933C95.3668 66.2933 95.2082 66.2933 94.9968 66.2933H52.7581L59.7362 46.2048Z" fill="#0C0B31"/>
<path d="M25.3215 100.602L26.696 99.175L25.3215 100.602Z" fill="#3CB4E5"/>
<path d="M26.696 99.175L25.3215 100.602L26.696 99.175Z" fill="#3CB4E5"/>
<path d="M44.5111 49.641L47.7358 44.7246C47.7358 44.7246 42.7666 37.0593 41.9207 30.0812C40.8106 22.4158 41.6035 12.2658 39.9648 2.75024C32.8281 4.86482 25.7442 8.45962 19.5591 13.6403C26.4315 26.3807 32.1937 37.4293 33.0924 43.8259C33.7267 48.9009 44.5111 49.641 44.5111 49.641Z" fill="#FFA296"/>
<path d="M47.5772 59.8439H25.1099V66.3991H47.5772V59.8439Z" fill="#3CB4E5"/>
<path d="M42.1852 87.0162C40.5993 87.4391 39.0662 86.5933 38.5376 85.0074L31.2952 60.3725L36.8988 58.7338L44.1412 83.4215C44.6699 84.9545 43.7712 86.5933 42.1852 87.0162Z" fill="#3CB4E5"/>
<path d="M42.8726 84.4786C43.0312 83.4214 42.0268 82.5755 40.9695 82.8927C40.4937 83.0513 40.1237 83.5271 40.0708 84.0557C39.9122 85.113 40.9166 85.9588 41.9739 85.6416C42.4497 85.3773 42.8197 84.9544 42.8726 84.4786Z" fill="#3CB4E5"/>
<path d="M22.8368 104.144L24.6342 102.135C14.2727 93.2013 16.123 82.7341 18.7134 76.4961L22.7839 78.3463C20.6693 83.3685 19.2949 91.6153 27.5946 98.752L29.392 96.7432L33.674 105.783L22.8368 104.144Z" fill="#3CB4E5"/>
<path d="M31.6122 44.0374L30.7135 45.9405C30.7135 45.9405 28.3875 44.7246 27.6474 45.6762C26.9073 46.6277 27.2245 50.011 25.1099 50.8569C22.9953 51.7027 18.5547 50.2225 16.2287 50.8569C12.2638 52.0199 12.4753 57.0949 12.9511 59.8967H48.7403C50.432 59.8967 52.8108 57.7821 52.0707 54.716C51.3835 51.6498 49.1103 49.1652 48.4231 43.403C48.3702 42.8215 46.5728 42.3986 46.0971 44.4074C45.3041 47.3678 43.0309 48.3722 40.7049 47.3149C39.2776 46.6806 35.577 44.7775 33.6211 43.4558C32.9338 43.0329 31.9294 43.2444 31.6122 44.0374Z" fill="white"/>
</svg>
