<svg width="520" height="502" viewBox="0 0 520 502" fill="none" xmlns="http://www.w3.org/2000/svg">
<path d="M390.433 148.627C432.015 192.308 470.366 269.881 439.793 339.962C439.613 340.385 439.673 340.627 439.494 341.05C437.22 346.125 434.588 351.32 431.357 356.214C424.596 366.424 415.741 376.03 405.75 385.817C324.68 465.082 177.917 449.132 122.036 407.929C105.643 395.846 89.8476 380.501 76.9244 359.416C41.0264 300.934 36.9581 219.374 62.3259 158.173C92.1212 86.279 225.901 28.8847 338.501 103.195C472.699 191.703 339.219 94.858 390.433 148.627Z" fill="#E7F6FF"/>
<path d="M390.433 148.627C396.596 155.092 402.639 162.281 408.442 170.075L431.237 114.372C407.963 95.5829 387.382 88.756 364.407 97.0328C358.544 99.1474 351.424 102.289 343.766 106.216C360.04 118.661 375.296 132.799 390.433 148.627Z" fill="#0C0B31"/>
<path d="M362.134 266.074C375.715 232.182 398.092 195.328 398.092 195.328L408.382 170.135C402.579 162.342 396.536 155.152 390.374 148.688C375.297 132.799 359.98 118.722 343.766 106.276C321.449 117.755 294.945 135.819 284.056 153.038C269.457 176.116 313.731 155.756 298.116 164.879C282.5 174.002 262.338 236.29 230.927 291.388C199.516 346.487 191.379 366.182 243.252 396.994C264.432 409.621 288.842 413.971 317.92 425.51C349.031 416.689 375.476 403.821 399.049 380.742C404.613 375.305 412.87 372.345 417.297 366.666C417.596 366.243 422.323 369.263 422.622 368.901C425.733 364.853 428.545 360.685 431.058 356.516C412.391 302.746 346.099 306.009 362.134 266.074Z" fill="#0C0B31"/>
<path d="M131.849 394.154C187.67 435.357 324.262 447.924 405.331 368.659C407.545 366.484 402.22 370.592 404.254 368.417C394.741 361.288 399.228 353.374 384.211 349.266C332.697 335.129 314.21 324.677 326.714 292.053C338.68 260.939 360.997 246.258 374.399 236.048L240.918 241.606C240.918 241.606 221.414 305.102 211.602 316.944C195.567 336.277 143.037 343.768 101.634 340.506C86.677 339.358 91.942 346.185 88.5317 356.757C101.814 378.93 114.917 381.648 131.849 394.154Z" fill="#E87366"/>
<path d="M121.139 410.164C177.02 451.368 325.637 466.048 406.707 386.784C412.929 380.682 418.374 374.459 423.16 368.115C419.451 365.759 415.203 362.799 410.058 359.174C386.784 342.862 362.253 339.056 344.663 334.706C342.689 333.679 295.005 406.66 249.594 404.425C204.183 402.129 222.371 312.956 215.73 313.681C201.251 315.252 114.737 324.979 96.6088 342.077C92.6002 345.883 86.5572 353.797 79.6768 363.826C91.9419 382.917 105.942 398.927 121.139 410.164Z" fill="white"/>
<path d="M103.549 332.954C113.421 339.962 116.113 344.554 130.293 334.404C138.43 328.544 160.327 315.192 166.131 292.355C168.943 281.299 176.9 261.423 181.388 256.408C185.875 251.394 186.593 241.727 179.533 241.425C173.251 241.184 159.789 242.513 143.635 268.25C127.481 293.987 129.515 324.677 129.515 324.677" fill="#E87366"/>
<path d="M175.644 275.56C162.96 266.316 160.567 255.864 160.746 248.735C161.225 230.973 177.379 211.942 210.226 190.616L218.721 203.968C182.345 227.65 176.601 242.452 176.422 249.158C176.362 250.971 176.242 256.468 184.798 262.691L175.644 275.56Z" fill="#0C0B31"/>
<path d="M321.689 75.4646C321.689 75.4646 297.278 58.4275 283.218 61.1462C269.158 63.8649 287.047 103.074 287.047 103.074L345.441 166.752L370.211 142.102L321.689 75.4646Z" fill="#0C0B31"/>
<path d="M334.552 264.02C310.74 277.009 295.304 284.743 267.662 281.178C230.927 276.466 200.772 254.475 197.482 228.315C194.191 202.095 205.14 163.792 234.337 138.719C243.012 131.288 254.081 128.751 256.654 127.603C259.226 126.455 262.816 122.89 264.79 120.655C266.765 118.359 273.227 109.901 276.996 106.88C286.569 99.0869 313.313 81.3853 340.954 86.4602C364.706 90.8101 354.655 76.3104 386.664 107.424C409.22 129.355 415.502 174.123 392.168 199.859C368.835 225.475 360.698 250.729 334.552 264.02Z" fill="#FFA296"/>
<path d="M231.345 171.706C244.987 190.797 259.167 188.743 258.389 195.389C257.611 202.035 248.278 204.814 238.106 202.216C227.935 199.618 224.824 190.012 227.277 185.843C232.123 177.506 231.345 171.706 231.345 171.706Z" fill="white"/>
<path d="M271 141.065C275.194 136.169 275.372 129.387 271.398 125.916C267.425 122.446 260.804 123.601 256.611 128.496C252.417 133.392 252.238 140.174 256.212 143.645C260.185 147.116 266.806 145.96 271 141.065Z" fill="#0C0B31"/>
<path d="M304.532 175.465C308.699 169.655 308.216 162.121 303.452 158.637C298.689 155.153 291.449 157.039 287.281 162.849C283.114 168.659 283.597 176.193 288.361 179.677C293.124 183.161 300.364 181.275 304.532 175.465Z" fill="#0C0B31"/>
<path d="M253.602 165.604C241.337 158.294 234.696 149.292 231.884 142.163C239.243 132.678 244.149 128.691 257.79 125.368C259.466 126.576 272.867 139.505 271.252 143.432C266.825 154.065 273.825 148.628 269.876 151.588C265.927 154.428 259.765 169.29 253.602 165.604Z" fill="#E87366"/>
<path d="M301.287 189.891C296.381 194.603 288.004 193.516 278.85 183.729C269.696 173.941 269.577 167.9 274.483 163.188C279.389 158.475 285.013 159.2 294.167 169.048C303.321 178.896 306.193 185.118 301.287 189.891Z" fill="#FFA296"/>
<path d="M363.091 88.2122C374.1 93.7704 377.33 131.892 351.424 157.69C325.518 183.487 319.774 214.117 328.21 229.221C336.646 244.325 379.963 259.791 379.125 259.247C379.125 259.247 419.75 198.651 423.339 171.464C426.929 144.217 411.852 121.622 396.955 106.699C382.057 91.7766 363.091 88.2122 363.091 88.2122Z" fill="#0C0B31"/>
<path d="M274.004 292.476L265.987 278.822C274.962 273.445 287.167 272.116 301.347 270.606C328.27 267.706 365.125 263.779 401.083 228.557L412.032 239.975C372.185 278.943 332.219 283.232 303.022 286.374C290.697 287.703 280.047 288.851 274.004 292.476Z" fill="#0C0B31"/>
<path d="M373.023 245.473C374.279 248.252 374.578 251.152 374.16 254.052C373.142 260.637 367.339 268.551 356.749 271.149L334.073 271.089C328.091 271.089 338.561 241.606 350.766 236.894C359.74 233.39 369.672 237.921 373.023 245.473Z" fill="#FFA296"/>
<path d="M352.681 259.912C345.681 264.141 367.399 291.69 408.98 268.672C449.485 246.258 495.136 197.503 462.05 130.382C429.024 63.2607 351.305 52.5068 317.321 69.9064C312.176 72.5646 306.073 59.6962 291.594 58.3067C287.287 57.8838 282.44 59.4546 280.526 61.9316C288.902 59.2733 302.603 71.6584 316.065 86.883C339.698 114.855 349.091 130.563 350.288 150.923C351.724 175.15 358.065 194.059 368.775 219.313C375.955 236.29 371.467 248.614 352.681 259.912Z" fill="#009DDC"/>
<path d="M236.91 309.03C223.269 304.438 209.627 300.873 204.302 303.351C199.037 305.828 198.738 317.065 198.738 317.065C198.738 317.065 190.063 317.427 188.448 324.798C186.832 332.169 185.695 344.977 189.225 351.803C192.755 358.63 202.328 362.92 202.328 362.92C202.328 362.92 206.516 378.93 225.422 391.073C244.329 403.217 256.953 405.392 256.953 405.392L249.594 334.102" fill="#FFA296"/>
<path d="M91.7027 321.656C92.7796 312.413 96.6088 286.072 96.0105 273.445C95.4123 260.818 97.4464 251.212 106.122 244.144C114.797 237.075 126.464 241.788 129.156 241.788C131.789 241.788 166.012 259.852 167.208 277.433C168.405 295.013 157.815 322.925 124.011 336.458C90.2668 349.87 91.7027 321.656 91.7027 321.656Z" fill="#E87366"/>
<path d="M91.7026 321.656C92.7796 312.413 96.6088 286.072 96.0105 273.445C95.4122 260.818 97.4464 251.212 106.122 244.144C114.797 237.075 126.464 241.788 129.156 241.788C131.789 241.788 159.191 257.737 160.387 275.258C161.584 292.838 159.849 323.65 126.105 337.183C92.3608 350.716 91.7026 321.656 91.7026 321.656Z" fill="#FFA296"/>
<path d="M112.045 245.533C113.959 240.096 117.609 233.269 123.472 231.698C129.336 230.127 137.652 229.644 137.652 229.644C137.652 229.644 147.404 223.603 151.233 222.878C155.062 222.153 162.003 224.146 164.994 227.228C171.097 233.511 169.841 252.058 170.798 261.362C171.576 269.156 166.251 283.112 161.345 284.984C156.558 286.797 147.943 265.591 147.943 265.591" fill="#FFA296"/>
<path d="M115.754 267.766C115.754 267.766 109.831 284.199 99.7198 303.471C97.2069 308.244 84.1042 324.979 68.3091 344.493C80.3349 367.089 94.3951 386.603 110.071 401.042C124.071 364.068 140.763 318.636 141.78 317.488L115.754 267.766Z" fill="#FFA296"/>
<path d="M366.143 155.515C367.698 139.384 376.014 115.52 325.099 67.6108C318.279 65.4962 312.535 62.9588 302.663 59.8776C289.919 55.8902 280.107 58.3673 278.252 65.6171C285.611 55.5882 308.227 76.7939 328.33 103.074C362.313 147.54 341.134 156.784 361.954 200.162C362.613 185.481 364.766 172.975 366.143 155.515Z" fill="#009DDC"/>
<path d="M373.023 245.473C374.279 248.252 374.578 251.152 374.16 254.052C373.143 260.637 367.339 268.551 356.749 271.149L334.074 271.089C330.125 271.089 326.296 269.639 323.484 267.101C323.304 266.981 320.732 263.839 320.014 262.147C319.296 260.395 318.996 258.523 319.296 256.529C320.612 248.554 338.561 241.667 350.766 236.954C359.741 233.39 369.672 237.921 373.023 245.473Z" fill="#FFA296"/>
<path d="M230.986 303.351C214.773 303.351 200.234 297.672 187.191 286.193L197.482 274.17C215.67 290.059 236.969 291.57 264.491 279.003C292.073 266.437 322.167 241.486 350.646 216.957L360.817 229.04C331.501 254.233 300.389 280.03 270.953 293.443C256.594 300.088 243.311 303.351 230.986 303.351Z" fill="#0C0B31"/>
<path d="M268.56 326.671C266.825 314.588 262.158 303.955 252.944 296.463C243.73 288.972 221.713 277.251 215.91 276.164C210.046 275.076 201.909 296.222 203.824 302.746C204.721 305.707 236.73 374.701 236.73 374.701L228.952 387.569L244.628 443.574C269.756 443.937 295.902 441.097 320.911 434.21C299.851 407.99 275.201 378.144 274.902 376.695C273.526 370.23 270.295 338.814 268.56 326.671Z" fill="#FFA296"/>
<path d="M286.027 128.932C291.113 124.341 287.044 114.855 277.711 106.639C268.018 98.1204 256.232 94.2539 249.83 101.202C232.958 119.387 226.915 135.94 236.787 144.157C246.659 152.434 268.198 144.942 286.027 128.932Z" fill="#0C0B31"/>
<path d="M258.389 103.134C262.756 103.134 268.62 106.034 274.124 110.807C280.107 116.063 282.799 121.077 282.799 123.675C282.799 124.46 282.56 124.642 282.381 124.823C270.714 135.275 257.013 142.041 247.44 142.041C244.329 142.041 241.876 141.316 240.201 139.927C238.466 138.477 237.568 136.725 237.448 134.369C237.03 127.36 242.953 116.606 253.722 104.946C254.919 103.738 256.414 103.134 258.389 103.134ZM258.389 97.6361C255.038 97.6361 252.107 98.7236 249.773 101.201C232.901 119.386 226.858 135.939 236.73 144.156C239.482 146.452 243.192 147.539 247.44 147.539C258.389 147.539 273.167 140.41 285.97 128.931C291.056 124.34 286.987 114.854 277.654 106.638C271.432 101.201 264.372 97.6361 258.389 97.6361Z" fill="white"/>
<path d="M277.834 106.881C270.415 100.477 260.782 95.3416 257.133 94.0125C253.483 92.6834 252.167 93.0458 250.192 94.9187C248.218 96.7916 247.62 99.6915 247.799 100.416C248.038 101.141 250.731 104.585 250.731 104.585C250.731 104.585 252.167 100.054 260.004 101.383C267.842 102.712 277.834 106.881 277.834 106.881Z" fill="white"/>
<path d="M254.619 165.242C245.226 156.119 242.833 142.707 252.884 141.438C270.893 139.082 284.774 134.43 293.988 127.603L291.475 127.362C296.381 135.639 285.551 145.365 277.355 150.319L258.209 168.021L254.619 165.242Z" fill="#FFA296"/>
<path d="M287.645 121.96L281.146 129.543L294.672 141.364L301.171 133.781L287.645 121.96Z" fill="white"/>
<path d="M335.088 177.081C340.772 172.188 344.002 162.038 327.789 146.088C307.207 125.789 297.694 124.157 291.232 129.595C266.882 150.196 265.805 175.087 280.403 187.291C291.412 196.474 314.506 194.662 335.088 177.081Z" fill="#0C0B31"/>
<path d="M298.236 133.887C300.928 133.887 307.749 136.122 322.945 151.044C331.74 159.684 332.877 165 332.817 167.417C332.817 168.021 332.757 169.954 330.663 171.706C320.253 180.587 308.287 185.723 297.757 185.723C292.432 185.723 287.825 184.333 284.834 181.856C280.227 178.05 277.834 172.673 277.774 166.33C277.714 155.999 284.235 144.52 295.663 134.914C296.68 134.068 297.398 133.887 298.236 133.887ZM298.236 126.878C295.424 126.878 293.15 127.905 291.176 129.537C266.825 150.138 265.748 175.029 280.346 187.233C284.594 190.798 290.637 192.731 297.697 192.731C308.885 192.731 322.467 187.898 335.091 177.023C340.775 172.129 344.006 161.98 327.792 146.03C313.492 132.014 304.518 126.878 298.236 126.878Z" fill="white"/>
<path d="M338.262 164.456L339.039 168.202C339.039 168.202 339.398 168.686 338.381 170.619C337.424 172.492 332.578 176.237 332.578 176.237C332.578 176.237 336.586 180.164 339.398 180.708C342.21 181.252 346.937 176.962 348.074 174.485C348.612 173.217 349.271 167.296 327.851 146.151C326.416 144.701 326.176 147.178 326.176 147.178L338.262 164.456Z" fill="white"/>
</svg>
