<svg width="526" height="502" viewBox="0 0 526 502" fill="none" xmlns="http://www.w3.org/2000/svg">
<path d="M311.127 456.026C299.358 456.996 287.39 457.788 275.35 458.33L173.635 406.769L71.8061 431.174C29.3973 411.179 1.60852 378.674 1.60852 328.135C1.60852 232.894 193.634 14.6083 401.72 44.9446C408.994 45.9901 416.201 47.4555 423.305 49.3334C425.269 49.865 427.253 50.2924 429.122 51.0013C612.396 120.597 508.259 439.764 311.127 456.026Z" fill="#E7F6FF"/>
<path d="M292.539 412.471C292.539 412.471 317.602 431.017 329.172 431.32C331.407 421.645 338.268 413.806 339.678 412.961C345.234 409.657 349.139 410.053 353.964 405.664C356.658 408.03 359.645 406.039 362.903 402.12C365.671 398.794 368.856 394.072 369.827 389.433C370.372 382.794 368.8 376.153 365.336 370.46C365.336 370.46 361.734 363.391 355.489 363.506L349.223 363.621C349.223 363.621 333.882 361.202 326.959 362.797C320.035 364.392 314.552 387.723 308.882 398.898C307.232 402.156 304.93 405.041 302.119 407.376C299.308 409.71 296.048 411.445 292.539 412.471V412.471Z" fill="#B75757"/>
<path d="M380.625 400.984L354.998 398.315C355.186 394.146 355.134 389.371 356.502 385.576C357.4 383.074 357.369 381.573 360.021 381.844L383.497 384.232C390.535 384.993 388.645 401.672 380.625 400.984Z" fill="#0C0B31"/>
<path d="M226.038 222.428C220.597 228.287 196.62 227.234 189.122 212.191C178.679 191.268 180.716 194.98 180.716 194.98L218.31 200.588L226.038 222.428Z" fill="#0C0B31"/>
<path d="M130.997 233.154C130.997 233.154 135.905 218.476 127.864 191.33C119.823 164.184 104.691 125.914 123.405 104.554C142.119 83.1934 174.22 80.0868 195.179 90.3136C216.138 100.54 211.669 124.58 213.893 130.366C216.117 136.152 225.046 145.054 225.485 149.944C225.923 154.833 220.587 157.064 220.587 157.064C220.587 157.064 223.26 174.421 223.72 185.544C224.179 196.668 223.72 206.019 212.567 209.521C201.727 212.993 193.853 208.187 188.945 212.19C184.037 216.193 192.078 239.295 192.078 239.295L130.997 233.154Z" fill="#B75757"/>
<path d="M128.929 228.119C131.884 220.113 130.778 213.618 130.684 209.354C130.297 190.402 115.75 182.25 109.234 162.547C104.273 147.587 98.2268 91.9602 153.303 86.2995C211.877 80.274 211.784 127.196 210.217 139.914C208.651 152.633 219.772 167.259 219.772 167.259C219.772 167.259 221.381 188.671 220.702 197.428C220.221 203.683 204.567 208.572 192.861 211.272C187.702 212.471 184.308 215.744 183.922 221.019C183.18 231.33 182.47 233.529 191.681 235.896C200.348 238.095 204.693 239.523 204.693 239.523C204.693 239.523 200.046 276.459 166.2 277.366C157.198 277.605 148.719 274.822 141.137 270.61C120.251 259.008 114.977 238.502 121.932 235.406C123.542 234.743 124.995 233.753 126.2 232.498C127.404 231.243 128.334 229.752 128.929 228.119V228.119Z" fill="#B75757"/>
<path d="M223.709 185.544C225.432 180.134 226.236 174.077 222.258 169.438C218.279 164.799 212.514 190.642 212.514 190.642L223.709 185.544Z" fill="#B75757"/>
<path d="M220.702 197.491C220.221 203.746 204.578 208.636 192.861 211.346C187.702 212.534 184.308 215.797 183.922 221.083C183.18 231.382 182.47 233.593 191.681 235.959C200.348 238.159 204.693 239.587 204.693 239.587C204.693 239.587 200.046 276.522 166.2 277.429C157.198 277.669 148.719 274.885 141.137 270.674C120.251 259.071 114.977 238.565 121.932 235.479C123.541 234.811 124.994 233.817 126.2 232.561C127.405 231.306 128.338 229.815 128.94 228.182C131.895 220.176 130.788 213.681 130.704 209.417C130.621 204.637 129.555 199.925 127.571 195.573C124.961 189.746 121.086 184.638 117.358 178.841C113.972 173.802 111.256 168.346 109.275 162.61C104.315 147.65 98.2686 92.0235 153.345 86.3628C182.23 83.3917 198.249 93.2953 206.823 105.628C209.183 109.006 205.34 112.571 206.698 116.053C210.436 125.758 209.716 135.214 209.131 139.946C207.575 152.665 219.814 167.28 219.814 167.28C219.814 167.28 221.381 188.724 220.702 197.491Z" fill="#B75757"/>
<path d="M212.525 125.56L213.569 124.82C214.055 124.459 214.616 124.211 215.21 124.093C215.805 123.976 216.418 123.993 217.005 124.142L219.396 124.736C220.407 124.989 221.337 125.495 222.097 126.206C222.858 126.918 223.423 127.811 223.741 128.802V128.802C223.942 129.421 224.041 130.069 224.033 130.72C224.033 135.088 223.553 152.289 219.699 152.373C215.533 152.425 212.525 125.56 212.525 125.56Z" fill="#0C0B31"/>
<path d="M220.576 157.063L206.217 142.542L203.941 140.248L202.677 123.985L212.682 119.471C212.682 119.471 213.026 126.154 213.956 131.564C214.214 133.516 214.738 135.424 215.512 137.235C217.642 141.197 219.532 149.213 220.576 157.063Z" fill="#B75757"/>
<path d="M213.977 131.565C211.667 132.866 209.448 134.322 207.335 135.922L206.291 142.469C206.286 142.493 206.286 142.518 206.291 142.542C206.156 143.275 205.871 143.973 205.454 144.592C205.037 145.211 204.497 145.737 203.868 146.138L195.514 151.434C194.643 151.979 193.637 152.268 192.61 152.268C191.689 152.271 190.783 152.038 189.979 151.591C186.919 149.891 173.343 147.859 172.372 165.685L170.659 180.697C170.334 183.646 169.141 186.433 167.231 188.706C165.32 190.979 162.777 192.636 159.924 193.467C150.003 196.313 137.701 196.741 129.201 196.052L127.707 195.917C127.707 195.802 127.603 195.688 127.551 195.563C124.94 189.735 121.066 184.627 117.338 178.831C113.952 173.792 111.235 168.336 109.255 162.599C105.923 152.539 102.091 124.027 116.701 104.794C124.585 97.2877 135.3 91.4394 145.941 87.4675C148.357 86.9702 150.797 86.598 153.251 86.3521L155.559 86.1333C169.437 83.183 183.891 84.8302 195.138 90.3032C207.419 96.3079 210.969 107.045 212.254 116.073C212.567 116.907 212.87 117.741 213.141 118.575C213.204 118.753 213.256 118.93 213.308 119.097L212.65 119.461C212.65 119.461 213.047 126.154 213.977 131.565Z" fill="#5D0C2A"/>
<path d="M79.1158 300.218L77.8834 248.552C61.3522 255.412 49.6875 275.428 45.2492 298.842C40.8109 322.256 31.3392 343.773 22.1076 358.107C12.876 372.441 18.4004 407.667 29.5117 422.824C33.9709 428.902 39.9547 432.957 49.4891 432.863C49.4891 432.863 71.9415 434.802 97.5267 423.126C125.952 410.158 79.1158 300.218 79.1158 300.218Z" fill="#009DDC"/>
<path d="M271.402 310.361C271.402 310.361 257.544 252.472 248.595 249.553C239.645 246.634 190.511 234.458 190.511 234.458C190.511 234.458 185.749 251.137 147.507 248.083C119.729 245.852 121.922 235.458 121.922 235.458C109.213 239.389 99.01 240.921 83.6693 245.883C69.3625 250.481 61.9166 258.852 58.5435 266.941C49.1449 289.48 62.9192 329.803 62.9192 329.803C64.8198 339.185 70.083 353.957 69.9055 396.709C69.9055 405.831 143.006 361.004 143.006 361.004L271.454 310.382" fill="white"/>
<path d="M271.392 310.371L143.006 360.973C143.006 360.973 69.9056 405.8 69.9056 396.699C70.0727 353.957 64.8095 339.164 62.9088 329.793C62.9088 329.793 49.1241 289.469 58.5332 266.931C61.9062 258.831 69.3626 250.46 83.659 245.862C95.3864 242.078 104.117 240.295 113.254 237.908C116.063 237.178 118.925 236.386 121.922 235.469C121.922 235.469 119.719 245.894 147.507 248.083C185.749 251.21 190.511 234.458 190.511 234.458L200.62 236.98C215.501 240.712 242.225 247.478 248.584 249.553C257.555 252.472 271.392 310.371 271.392 310.371Z" fill="white"/>
<path d="M275.35 458.352C256.229 459.227 236.868 459.53 217.799 459.019L173.636 456.298C135.707 452.503 100.42 444.695 71.8063 431.195C66.6475 382.907 72.2971 309.933 72.2971 309.933L125.556 263.115L271.277 290.158C271.277 290.158 266.056 343.814 269.606 385.607C272.405 418.789 274.567 447.812 275.35 458.352Z" fill="white"/>
<path d="M233.557 331.397C244.397 350.162 250.548 388.734 264.447 407.499C283.61 433.436 300.131 446.686 310.062 446.738C326.583 446.832 337.987 438.971 335.731 407.488C333.475 376.005 298.314 331.731 294.721 300.759C291.129 269.787 273.052 255.661 248.595 249.552C233.317 245.747 213.528 283.683 233.557 331.397Z" fill="#009DDC"/>
<path d="M197.675 146.254C198.571 146.435 199.409 146.831 200.118 147.406C200.827 147.982 201.386 148.72 201.748 149.558C204.129 154.573 206.123 164.007 208.765 169.438C211.898 175.891 215.564 176.329 215.564 176.329C215.564 176.329 213.036 160.275 220.597 157.064C225.098 155.156 226.529 162.162 225.578 166.311C225.409 167.106 225.001 167.83 224.41 168.388C223.819 168.947 223.072 169.313 222.268 169.438C222.268 169.438 219.939 169.209 219.469 179.707C218.999 190.205 223.72 185.545 223.72 185.545C226.468 190.638 228.139 196.241 228.628 202.006C229.578 211.92 230.998 224.2 220.597 224.2C210.196 224.2 194.552 211.127 194.552 211.127L197.675 146.254Z" fill="#0C0B31"/>
<path d="M218.258 129.136L181.843 150.246L182.877 153.801L218.258 135.766V129.136Z" fill="#0C0B31"/>
<path d="M155.653 148.953C155.653 148.953 174.335 173.796 195.597 179.561L196.641 188.943C196.641 188.943 174.617 184.231 153.23 160.41L155.653 148.953Z" fill="white"/>
<path d="M191.336 147.994C186.324 143.251 173.709 142.229 171.129 154.249C168.268 167.593 185.749 188.651 195.639 177.83" fill="#B75757"/>
<path d="M185.749 125.936C185.749 125.936 194.448 167.572 194.866 185.472C195.284 203.371 189.164 212.076 189.164 212.076H189.592C190.995 212.122 192.385 211.804 193.628 211.154C194.871 210.504 195.924 209.543 196.683 208.365C202.594 199.201 202.145 184.387 202.249 176.736C202.354 168.855 193.696 123.569 193.696 123.569L185.749 125.936Z" fill="white"/>
<path d="M396.958 72.8937L399.726 72.5914C417.055 70.6523 434.548 70.6523 451.878 72.5914L454.635 72.8937C455.599 73.0037 456.49 73.4638 457.137 74.1865C457.784 74.9093 458.142 75.8442 458.144 76.8135V187.765C458.146 189.605 457.53 191.393 456.394 192.843C455.258 194.292 453.668 195.32 451.878 195.761V195.761C434.761 199.92 416.895 199.92 399.778 195.761C397.989 195.318 396.4 194.29 395.264 192.841C394.128 191.392 393.512 189.605 393.512 187.765V76.8135C393.512 75.8538 393.861 74.9267 394.495 74.2054C395.129 73.4841 396.005 73.0178 396.958 72.8937V72.8937Z" fill="#0C0B31"/>
<path d="M412.665 112.999C418.173 112.999 422.638 106.11 422.638 97.6117C422.638 89.1136 418.173 82.2246 412.665 82.2246C407.157 82.2246 402.692 89.1136 402.692 97.6117C402.692 106.11 407.157 112.999 412.665 112.999Z" fill="#009DDC"/>
<path d="M412.665 149.788C418.173 149.788 422.638 142.899 422.638 134.401C422.638 125.903 418.173 119.014 412.665 119.014C407.157 119.014 402.692 125.903 402.692 134.401C402.692 142.899 407.157 149.788 412.665 149.788Z" fill="white"/>
<path d="M412.665 186.577C418.173 186.577 422.638 179.688 422.638 171.19C422.638 162.692 418.173 155.803 412.665 155.803C407.157 155.803 402.692 162.692 402.692 171.19C402.692 179.688 407.157 186.577 412.665 186.577Z" fill="white"/>
<path d="M116.053 185.347C122.737 187.14 140.719 187.755 154.253 183.877C157.106 183.047 159.65 181.392 161.562 179.122C163.474 176.851 164.67 174.066 164.999 171.117L166.701 156.095C167.683 138.269 181.248 140.301 184.308 142.011C185.161 142.483 186.125 142.716 187.099 142.687C188.073 142.657 189.021 142.366 189.843 141.844L198.197 136.559C198.838 136.152 199.386 135.615 199.805 134.983C200.225 134.351 200.506 133.637 200.631 132.889L201.675 126.343C201.675 126.343 204.912 123.684 213.82 118.847C222.101 114.365 233.181 108.527 219.783 105.295C218.699 105.026 217.692 104.51 216.842 103.786C215.992 103.062 215.322 102.152 214.885 101.125C204.609 77.3564 173.625 69.1938 153.199 74.0205C131.801 79.0557 105.088 92.7851 99.7098 113.176C91.7732 143.2 107.834 174.484 112.45 182.595C113.242 183.95 114.536 184.938 116.053 185.347V185.347Z" fill="#009DDC"/>
<path d="M204.801 130.743C205.039 127.778 203.637 125.247 201.67 125.09C199.704 124.933 197.917 127.209 197.679 130.175C197.441 133.14 198.843 135.671 200.81 135.828C202.776 135.985 204.563 133.708 204.801 130.743Z" fill="#0C0B31"/>
<path d="M429.488 50.8351V74.218L422.105 77.3454V48.7294C424.611 49.3966 427.076 50.0845 429.488 50.8351Z" fill="#0C0B31"/>
<path d="M223.166 164.716L222.268 169.438C222.268 169.438 219.939 188.109 215.94 190.517C212.306 192.717 220.597 163.767 220.597 163.767L223.166 164.716Z" fill="#0C0B31"/>
<path d="M331.721 436.282C339.616 420.875 344.472 417.518 339.678 401.119C334.885 384.721 313.132 378.07 313.132 378.07L331.721 436.282Z" fill="#009DDC"/>
</svg>
