<svg width="192" height="131" viewBox="0 0 192 131" fill="none" xmlns="http://www.w3.org/2000/svg">
<g clip-path="url(#clip0_1601_28185)">
<path d="M15.0919 51.6283L34.5919 117.911C36.7301 125.266 43.4866 130.312 51.184 130.312H140.816C148.513 130.312 155.27 125.266 157.408 117.911L176.908 51.6283C183.237 30.1612 167.072 8.60852 144.664 8.60852H47.3353C24.8419 8.60852 8.76296 30.1612 15.0919 51.6283Z" fill="#E7F6FF"/>
<path d="M190.592 1.50987C189.822 0.740132 188.796 0.3125 187.684 0.3125H153.303C152.02 0.3125 150.822 1.08224 150.309 2.19408L139.789 25.0296C139.276 26.1414 138.164 26.8257 136.967 26.8257H95.9144H54.9473C53.7499 26.8257 52.6381 26.1414 52.1249 25.0296L41.6052 2.19408C41.092 1.08224 39.9802 0.3125 38.6973 0.3125H4.31571C3.20387 0.3125 2.17755 0.740132 1.40782 1.50987C0.638081 2.27961 0.210449 3.30592 0.210449 4.41776C0.210449 6.72697 2.09203 8.52303 4.31571 8.52303H26.467L25.4407 10.6612C25.1841 11.1743 24.671 11.5164 24.0723 11.5164H13.1249C11.9276 11.5164 10.9012 12.1151 10.3026 13.1414L8.33545 16.648L11.3289 18.273L12.7828 15.6217C13.0394 15.1941 13.467 14.9375 13.9802 14.9375H24.1578C26.0394 14.9375 27.8354 13.8257 28.6907 12.1151L29.8026 9.80592C30.1447 9.03618 30.9144 8.52303 31.8552 8.52303C32.7104 8.52303 33.3947 9.03618 33.7368 9.80592L46.1381 38.3717C47.5065 41.5362 50.5855 43.5033 54.0065 43.5033H70.4276C72.8223 43.5033 74.9605 45.2138 75.4736 47.523L77.6118 57.1875H52.296C49.1315 57.1875 46.8223 60.2664 47.6776 63.3454L53.6644 83.7862C54.5197 86.6086 57.171 88.5757 60.0789 88.5757H81.4605V130.313H95.9999H110.539V88.6612H131.835C134.829 88.6612 137.395 86.6941 138.25 83.8717L144.237 63.4309C145.178 60.352 142.868 57.273 139.618 57.273H114.474L116.612 47.6086C117.125 45.2993 119.178 43.5888 121.658 43.5888H138.079C141.5 43.5888 144.579 41.5362 145.947 38.4572L158.349 9.89145C158.691 9.12171 159.46 8.60855 160.23 8.60855C161.085 8.60855 161.855 9.12171 162.283 9.89145L163.395 12.2007C164.25 13.9112 165.96 15.023 167.928 15.023H178.02C178.533 15.023 178.96 15.2796 179.217 15.7072L180.671 18.3586L183.664 16.7336L181.697 13.227C181.099 12.2007 180.072 11.602 178.875 11.602H167.842C167.243 11.602 166.73 11.2599 166.474 10.7467L165.447 8.60855H187.599C189.908 8.60855 191.704 6.72697 191.704 4.50329C191.789 3.30592 191.362 2.27961 190.592 1.50987Z" fill="#0C0B31"/>
<path d="M152.704 125.523C150.138 128.003 146.803 129.628 143.211 130.141C143.125 130.141 143.04 130.141 142.954 130.141C142.099 130.227 141.243 130.312 140.388 130.312H120.546C120.546 130.312 113.961 126.036 111.993 113.72C110.454 104.312 116.184 69.6743 119.862 71.9835C123.625 74.2927 130.724 72.7532 132.862 74.9769C135.855 78.1414 136.197 86.694 139.79 89.944C148.342 97.7269 148.428 112.523 152.704 125.523Z" fill="#FFA296"/>
<path d="M75.1315 113.549C71.2828 113.549 68.2039 110.47 68.2039 106.622V24.0889C68.2039 20.2402 71.2828 17.1613 75.1315 17.1613H116.868C120.717 17.1613 123.796 20.2402 123.796 24.0889V106.622C123.796 110.47 120.717 113.549 116.868 113.549H75.1315Z" fill="#3CB4E5"/>
<path d="M116.868 19.2994C119.52 19.2994 121.658 21.4375 121.658 24.0889V106.622C121.658 109.273 119.52 111.411 116.868 111.411H75.1315C72.4801 111.411 70.342 109.273 70.342 106.622V24.0889C70.342 21.4375 72.4801 19.2994 75.1315 19.2994H116.868V19.2994ZM116.868 15.0231H75.1315C70.0854 15.0231 66.0657 19.1283 66.0657 24.0889V106.622C66.0657 111.582 70.1709 115.688 75.1315 115.688H116.868C121.829 115.688 125.934 111.582 125.934 106.622V24.0889C125.934 19.1283 121.914 15.0231 116.868 15.0231Z" fill="white"/>
<path d="M116.697 47.6085L114.559 57.273H121.658V88.6611H110.539V111.411H81.4605V88.6611H70.342V57.273H77.4407L75.3026 47.6085C74.7894 45.2138 72.7368 43.5888 70.342 43.5888V26.9111H121.658V43.5888C119.263 43.5888 117.21 45.2138 116.697 47.6085Z" fill="#0C0B31"/>
<path fill-rule="evenodd" clip-rule="evenodd" d="M95.9998 88.6612C93.9215 88.6612 92.2366 90.346 92.2366 92.4244C92.2366 94.5027 93.9215 96.1875 95.9998 96.1875C98.0781 96.1875 99.763 94.5027 99.763 92.4244C99.763 90.346 98.0781 88.6612 95.9998 88.6612ZM90.5261 92.4244C90.5261 89.4013 92.9768 86.9507 95.9998 86.9507C99.0228 86.9507 101.473 89.4013 101.473 92.4244C101.473 95.4474 99.0228 97.898 95.9998 97.898C92.9768 97.898 90.5261 95.4474 90.5261 92.4244Z" fill="white"/>
<path fill-rule="evenodd" clip-rule="evenodd" d="M79.8354 35.3783C79.8354 34.5348 80.5058 33.6677 81.546 33.6677H85.0526V35.3783H81.546V38.8848H79.8354V35.3783ZM110.454 35.3783H106.947V33.6677H110.454C111.494 33.6677 112.164 34.5348 112.164 35.3783V38.8848H110.454V35.3783ZM112.079 60.694V64.2006C112.079 65.0441 111.408 65.9111 110.368 65.9111H106.862V64.2006H110.368V60.694H112.079ZM81.546 60.7796V64.2861H85.0526V65.9967H81.546C80.5058 65.9967 79.8354 65.1296 79.8354 64.2861V60.7796H81.546Z" fill="white"/>
<path d="M106.947 38.8849H97.5393V48.2928H106.947V38.8849ZM104.809 46.0691H99.763V41.023H104.809V46.0691Z" fill="white"/>
<path d="M103.441 42.3915H101.132V44.7007H103.441V42.3915Z" fill="white"/>
<path d="M85.0525 48.2928H94.4604V38.8849H85.0525V48.2928ZM87.1906 41.023H92.2367V46.0691H87.1906V41.023Z" fill="white"/>
<path d="M106.947 51.3717H97.5393V60.7796H106.947V51.3717ZM104.809 58.6414H99.763V53.5954H104.809V58.6414Z" fill="white"/>
<path d="M94.4604 51.3717H92.3223V53.5954H94.4604V51.3717Z" fill="white"/>
<path d="M92.2368 57.3586H90.9539V55.2205H94.3749V60.7797H85.2236V58.6415H92.3223V57.3586H92.2368Z" fill="white"/>
<path d="M87.1907 55.1349H89.0723V57.273H84.967V51.3717H90.6118V53.5099H87.1907V55.1349Z" fill="white"/>
<path d="M97.1972 90.6283C98.9933 87.7204 105.408 89.773 107.888 92.1677C110.368 94.5625 113.362 100.378 116.184 102.26C119.006 104.141 121.658 106.023 126.618 104.569L132.263 116.372C132.263 116.372 114.131 122.786 113.191 118.681C112.079 113.806 107.974 103.97 101.987 100.549C99.6775 99.2664 95.5722 93.1941 97.1972 90.6283Z" fill="#FFA296"/>
</g>
<defs>
<clipPath id="clip0_1601_28185">
<rect width="191.579" height="130" fill="white" transform="translate(0.210449 0.3125)"/>
</clipPath>
</defs>
</svg>
